<?xml version="1.0" standalone="no"?>
<!DOCTYPE svg PUBLIC "-//W3C//DTD SVG 20010904//EN"
 "http://www.w3.org/TR/2001/REC-SVG-20010904/DTD/svg10.dtd">
<svg version="1.0" xmlns="http://www.w3.org/2000/svg"
 width="217.000000pt" height="217.000000pt" viewBox="0 0 217.000000 217.000000"
 preserveAspectRatio="xMidYMid meet">
<metadata>
Created by potrace 1.11, written by Peter Selinger 2001-2013
</metadata>
<g transform="translate(0.000000,217.000000) scale(0.100000,-0.100000)"
fill="#000000" stroke="none">
<path d="M970 2134 c-143 -22 -231 -48 -345 -104 -181 -87 -333 -229 -443
-414 -38 -63 -97 -200 -109 -251 -63 -278 -35 -536 80 -760 56 -108 109 -179
207 -275 138 -135 281 -217 479 -272 107 -29 339 -37 442 -14 168 38 306 97
429 184 71 51 226 204 235 233 4 11 10 19 14 19 18 0 132 249 158 345 24 89
27 117 27 260 0 142 -3 172 -27 260 -110 409 -442 714 -852 780 -82 14 -233
18 -295 9z m659 -624 l1 -190 -93 0 c-59 0 -97 4 -105 12 -15 15 -17 241 -2
269 9 15 22 19 65 19 l55 0 0 40 c0 40 0 40 39 40 l40 0 0 -190z m-1069 -85
c0 -228 8 -215 -125 -215 l-86 0 3 27 c3 27 5 28 63 28 57 0 60 1 60 25 0 23
-4 25 -50 28 -27 2 -55 8 -62 14 -9 7 -13 47 -13 139 0 111 2 129 18 138 9 6
56 11 105 11 l87 0 0 -195z m247 187 c10 -6 19 -97 13 -127 -2 -5 -1 -53 0
-105 2 -97 10 -122 39 -119 44 4 50 -1 53 -43 l3 -43 50 -3 c27 -2 55 -8 62
-14 10 -8 13 -50 13 -154 l0 -144 -37 0 -38 0 2 119 c2 94 0 121 -12 131 -8 7
-22 10 -30 6 -12 -4 -15 -28 -15 -131 l0 -125 -38 0 -38 0 2 156 c2 180 0 194
-30 194 -47 0 -55 18 -58 125 -3 95 -4 100 -25 103 -22 3 -23 0 -23 -58 l0
-61 -37 3 -38 3 0 135 c0 74 1 141 3 148 5 13 158 17 179 4z m271 -4 c8 -8 12
-56 12 -150 l0 -139 -97 3 -98 3 -3 70 c-1 39 1 75 6 82 4 7 28 13 52 14 63 3
70 7 70 40 l0 30 -65 -7 -65 -7 0 31 c0 17 6 33 13 35 26 11 163 7 175 -5z
m159 1 c8 -8 17 -8 31 0 27 14 65 14 80 -1 8 -8 12 -56 12 -150 l0 -138 -35 0
-34 0 -3 118 -3 117 -27 3 -28 3 0 -120 0 -121 -35 0 -35 0 0 150 0 150 33 0
c18 0 38 -5 44 -11z m-559 -366 c-10 -2 -26 -2 -35 0 -10 3 -2 5 17 5 19 0 27
-2 18 -5z m-28 -83 c0 -6 28 -10 63 -10 59 0 62 -1 63 -25 2 -24 0 -25 -57
-25 -70 0 -76 -8 -73 -97 2 -86 1 -83 29 -83 24 0 25 3 25 60 l0 60 40 0 40 0
0 -71 c0 -105 -4 -109 -103 -109 -51 0 -88 5 -95 12 -8 8 -12 48 -12 114 0 79
-3 103 -14 107 -15 6 -11 41 7 65 11 14 87 16 87 2z m638 -3 c8 -6 12 -37 12
-88 l0 -79 -65 0 -65 0 0 -34 c0 -43 9 -49 44 -30 16 7 41 14 57 14 23 0 29
-5 29 -21 0 -51 -15 -59 -105 -59 -46 0 -87 4 -90 10 -3 5 -6 71 -7 146 0 105
3 138 13 145 18 12 160 9 177 -4z m272 -12 c0 -23 -4 -24 -62 -27 -52 -2 -63
-6 -66 -22 -6 -27 16 -37 73 -34 48 2 50 1 53 -25 3 -27 3 -27 -62 -27 l-66 0
0 -75 0 -75 -37 0 -38 0 3 147 c2 100 7 150 15 155 7 4 51 8 100 8 86 0 87 0
87 -25z m150 15 c0 -6 27 -10 60 -10 57 0 60 -1 60 -25 0 -24 -3 -25 -55 -25
-42 0 -56 -4 -63 -17 -14 -29 -9 -153 7 -163 29 -17 41 1 41 60 l0 58 35 4 36
4 -3 -90 -3 -91 -85 -3 c-108 -4 -110 -1 -110 130 0 59 -4 98 -10 98 -14 0
-12 54 2 68 14 14 88 16 88 2z m-1026 -406 c13 -12 16 -41 16 -150 l0 -134
-94 0 c-65 0 -97 4 -103 13 -11 17 -12 119 -1 140 6 13 21 17 57 17 54 0 77
17 66 49 -5 18 -14 20 -67 18 -51 -2 -61 1 -63 16 -6 34 22 47 100 47 54 0 78
-4 89 -16z m156 -110 c0 -124 0 -125 23 -122 21 3 22 7 25 126 l3 122 37 0 38
0 -1 -140 c0 -84 -5 -144 -11 -150 -7 -7 -46 -10 -100 -8 l-89 3 -3 148 -3
147 41 0 40 0 0 -126z m285 116 c3 -5 31 -10 61 -10 53 0 54 -1 54 -28 0 -26
-2 -28 -35 -24 -19 2 -46 1 -60 -2 -25 -6 -26 -8 -23 -89 3 -75 5 -82 24 -85
24 -3 34 19 34 81 0 35 2 37 30 37 l31 0 -3 -82 -3 -83 -84 -3 c-48 -2 -89 2
-94 7 -6 6 -11 53 -12 106 -1 58 -6 100 -13 107 -16 16 -15 45 1 63 14 16 83
20 92 5z m377 -7 c13 -14 15 -42 14 -138 -1 -66 -5 -126 -10 -133 -10 -16
-168 -16 -184 0 -8 8 -12 53 -12 134 0 151 2 154 104 154 57 0 76 -4 88 -17z"/>
<path d="M1502 1464 c3 -96 9 -112 37 -95 11 7 15 32 15 98 l1 88 -28 3 -28 3
3 -97z"/>
<path d="M430 1464 l0 -95 27 3 c26 3 26 4 26 78 -1 114 0 110 -28 110 -25 0
-25 0 -25 -96z"/>
<path d="M693 1544 c-8 -22 10 -49 33 -49 14 0 20 8 22 33 3 29 1 32 -23 32
-14 0 -28 -7 -32 -16z"/>
<path d="M967 1420 c-8 -32 2 -50 30 -50 21 0 24 4 21 33 -4 39 -42 52 -51 17z"/>
<path d="M1177 1113 c-14 -13 -7 -64 9 -70 24 -9 48 21 40 51 -6 25 -33 35
-49 19z"/>
<path d="M577 583 c-13 -12 -7 -61 7 -66 25 -10 50 17 42 46 -6 26 -33 37 -49
20z"/>
<path d="M1388 703 c-3 -7 -2 -121 1 -171 1 -8 10 -12 24 -10 21 3 22 8 25 96
l3 92 -25 0 c-14 0 -26 -3 -28 -7z"/>
</g>
</svg>
